<?xml version="1.0" encoding="utf-8"?>
<!-- Generator: Adobe Illustrator 18.1.1, SVG Export Plug-In . SVG Version: 6.00 Build 0)  -->
<svg version="1.1" id="Layer_1" xmlns="http://www.w3.org/2000/svg" xmlns:xlink="http://www.w3.org/1999/xlink" x="0px" y="0px"
	 viewBox="0 0 484.7 400.3" enable-background="new 0 0 484.7 400.3" xml:space="preserve">
<g>
	<path fill="none" d="M387.8,38.5C387.8,38.5,387.9,38.5,387.8,38.5C387.9,38.5,387.9,38.5,387.8,38.5
		C387.8,38.5,387.8,38.5,387.8,38.5z"/>
	<path d="M423.4,24.7c-3.8-5.9-15.5-7-20.8-3.9l-9,5.3c0,0-2,1.9-3.9,1.9c-2.4-0.5-2.6,1.4-3.2,1.6c-0.5,0.2-1.3-0.1-1.8,0
		c-3.9,0.7-8.9,0.4-12.9,0.5c-10.4,0.3-20.3-0.1-28.4,1.1c-3.3,0.5-6.4,2.1-9.6,2.6c-0.9,0.1-1.9,0.2-3,0.3
		c-0.9,0.1-1.9,0.1-2.8,0.2c-3.8,0.3-6.8,0.4-9.5,0.4c-0.7,0-1.3,0-2,0.1c-2.2,0.1-4.5,0.6-6.5,0.6c-2-0.1-5.9-1.1-9.1-1.5
		c-7.1-1.1-13.9-0.9-20.6-1.1c-0.1,0,3.4-12.9,3.9-14.2c0-0.1,0-0.1,0.1-0.2c0-0.1,0-0.1,0-0.2c0-0.6-0.3-1.3-0.1-1.8
		c0.2-0.3,1.7-0.5,2-1c1-1.8,1.3-3.4,1.1-4.7c-0.3-2.2-2.1-3.8-5-5.8c-4.4-3-8.5-4.5-15.5-4.7c-3.6-0.3-13.3-1.1-14.4,4.1
		c0,0.1-4.6,2.2-5.3,2.9c-0.2,0.2-0.4,0.4-0.6,0.6c-1.4,1.6-2,3.2-2.4,5.3c-0.2,1-0.2,2-0.2,3.1c0.2,4.1,1.8,8.2,1.6,12.2
		c-0.9,1.9-3,2.8-3.8,4.7c-2.7,0.2-4.8,1.4-7.1,2.1c-2.6,0.8-5.6,1.1-7.8,2.1c-8.8,4.1-12.8,11.4-13.5,21.4c0.4,3.5-0.8,5-1.3,7.4
		c-1.3,7.9,0.4,14.8,2,22.5c0.8,4,1.4,7.9,4.5,10.5c-1,2.4-4.3,3.4-5.8,5.3c-0.6,0.8-1.1,2.4-1.9,3.6c-0.7,1.2-1.7,2.6-2,3.7
		c-0.8,3.5,0.9,6.5,0.7,8.9c-0.4,5-4.1,9.1-6.2,13.4c-2.8,5.9-10.2,17.4-10.1,24.8c0,1.1-0.5,2.2-1.5,2.8c-0.7,0.5-1.5,1-2.3,1.4
		c-2,1.1-3.3,7.8-4.8,9.8l0,0c-1.6,2.1-3.8,3.6-5.9,5.3c-1.3,1.1-2.5,2.2-3.4,3.7c-4.1,6.2-7.1,13.6-9.7,20.4
		c-1.1,2.8-1.3,4.6-2.5,6.8c-2.5,4.4-6.2,6.4-9.7,9.4c-1,0.9-2.4,2.1-3.2,3.2c-1,1.1-2.3,2.5-2.6,3.6c-0.5,2.4,1,5,0.7,7.3
		c-0.8,5.9-5.1,11.4-2.7,18.6c-6.2,0.1-10.7,0.2-12.6,0.4c9,14.6,55.5,6,73.8,6c35.1-0.1,56.9,5,91.9,4.1l3.5,0.4
		c7.8-0.1,15.9,0.1,23.6-0.3c-1.8-4.1-9.4-6.4-19.6-7.6c0.2-1.9,0.2-4.1,0-4.6c-0.8-2.2-4.4-4.2-5.9-6.1c-9-11.2-2.9-23.6,3.4-35.8
		c2.2-4.3,4.5-8.7,6.2-12.9c1.8-4.5,2.4-9.3,3.2-14.1c0.3-2.1,0.5-4.3,1.3-6.3c0.9-2.1,2.3-4,2.8-6.3c1.7-7-5.2-11.1-7.7-16.8
		c-0.8-1.1-1.7-1.6-2.6-2.6c-0.8-0.9-1.2-2.2-2-3.2c-2.9-3.5-6.9-6.7-8.9-10.9c-2.2-4.6-8.6-8.2-11.9-12c-7.6-8.8-15-23.5-6.1-34.3
		c5.2-6.2,18.4-6.2,14.3-17.6c-1-2.7-4-5.7-3.8-8.6c0.2-3.7,4.4-6.3,6.1-9.2c12.2-3,26.3-4.2,38.8-5.1c3.2-0.2,6.3-0.2,9.5-0.2
		c4.5,0,9,0.1,13.4-0.3c9.2-0.7,24.6-4.2,31.7-9c0,0,0,0,0,0c0,0,0,0,0.1,0c3.8,1,7.7,0.3,11.5,1.8c3.2,1.2,6.3,3.4,9.7,4.1
		c2.6,0.5,7.1,0,7.2,0C423.8,43.6,427.2,30.6,423.4,24.7z M268.4,23.7c1.6-0.2,4.5-2.3,6.6-2.4c0.6,0,1.1,0.1,1.6,0.4
		c2,1.5-0.8,5.8-0.6,8c0,0.4,1.4,3.8,1.4,3.6c-0.4,2.5-0.6,1.2-1.9,3.1c-0.4,0.6-0.8,1.1-1.3,1.6c-1,1.1-2.1,2-2.8,3.2
		c-2.1,1.2-11.1-4.3-11.9-6.9C257.4,28.5,268.7,28.5,268.4,23.7z M217.8,75v-1.2c0-1.8,0.7-2.9,1.6-3.8c0.9-1,2-1.8,2.4-3.3
		c1-3.4-1.7-6.2,0.4-9.7c1.9-3.2,7.9-8.8,10.5-11.4c5.2,4.8-0.8,11.1-3.6,15.6c2.4,4.2,4.5,5.3,3.6,10.2c-0.6,3.9-4.1,6.5-5.1,10.1
		c9.5-2.6,23.2,3.2,34,0.8c2.2,7.2-21.8,13.3-28.2,14.7c-1.8,0.4-3.9,0.8-5.9,0.7c-2.4-0.1-4.7-0.7-6.4-2.5
		C218.7,92.5,215.6,77.5,217.8,75z M184.3,185.4c1.6-1.7,3.2-3.2,4.5-4.2l3.2-2.4c0.1-0.4,0.3-0.8,0.5-1.2c1.5-3.2,5.6-8.3,9.7-5.8
		c1.1,0.7,1.6,1.7,1.7,2.9c0.3,3.3-2.5,7.9-4.2,9.4c-2.2,2-4.7,3.3-7.1,4.7c-0.8,0.4-1.5,0.9-2.3,1.4c-0.4,0.3-0.9,0.6-1.3,0.9
		c-0.9,0.6-1.7,1.3-2.5,2.2c-2.9,3.1-6.6,10.2-11.6,10.7c-1.1,0.1-1.9-0.9-1.6-2C174.7,197.2,179.8,190.2,184.3,185.4z M228.4,253.4
		c-14.3-1.3-44.6-1.9-67.5-2c-0.4,1.1-0.6,2.3-0.8,3.5c-0.9,0-1.7-0.1-2.4-0.3c-2.3-0.5-3.1-1.7-3-3.2c0.2-3.2,4.8-7.6,8.3-9.2
		c1.3-2.9,2.9-5.7,3.8-8.8c0.4-1.5,0.1-3.2,0.6-4.7c5.4-14.4,18.3-21.1,28.1-33.8c0.1-0.1,0.2-0.2,0.3-0.3c3.4-4.4,5-8.3,10.2-11.6
		c4.6-2.9,7.6-6.2,9.9-11.2c2.4-5.1,6.3-8.8,10.8-12.1c2.9-2.2,6.1-4.4,8.4-7.3c2.2-2.6,2.5-6.2,4.3-8.6c3.1-4.1,9.6-4.6,14.2-2.5
		c10.9,4.8,16.1,18.4,28.4,21.3c1.4,1.1,1.2,2.4,2.6,3.7c0.7,0.6,1.8,0.4,3.2,2.1c1.5,1.9,3.3,4.4,2.9,6.9c-0.4,2.3-2.2,3.9-3.4,5.8
		c-6.1,9.4-3.3,22.8-5,33.3c-1,5.7-2.9,11.1-7.4,15.9c-2.3,2.5-11.7,7.1-4.4,11.9c1.5,0.9,3.6,1,5.2,1.6c0.9,0.4,1.7,0.8,2.5,1.1
		c3.3,0.9,5.5,2.7,8,5c-1,1.2-0.8,2.3,0.3,3.3C264,252.9,238.3,254.4,228.4,253.4z M289.9,73.5c0,4.3-8.3,7.3-14.7,7.3
		c-0.2,0-0.4,0-0.6,0c-6.2-0.2-12.3-3-12.3-7.2c0-4.3,6.4-11.1,12.8-11.1c1.7,0,3.4,0.4,5.1,1.2C285.3,65.6,289.9,70.2,289.9,73.5z
		 M356.1,38c-6.3,1.5-10.4,4.5-17.2,5.2c-0.3,0-0.6,0.1-1,0.1c-5.2,0.4-11.6-0.4-17.4,0.6c-4.5,0.8-12.5,6.3-16.8,2.4l-0.6-0.6
		c-0.9-0.4-1.5-0.7-2.5-0.7c0.1-0.5,0.1-0.9,0-1.3c-0.1-0.8-0.4-1.5-0.9-2.1c-3.2-3.7-13.4-2.4-17.2-2c-0.6-8,15.6-3.1,19.9-2.2
		c8.6,1.5,14.2,0.8,22.7,0c3.3-0.3,6.8,0.3,10.1,0.1c0.5,0,1-0.1,1.5-0.1c4.2-0.6,7.8-3.1,12.2-3.6c6.5-0.8,18.6-1.4,24.4,1.1
		C368.6,38.3,361.6,36.8,356.1,38z M409.8,36.2c-6.5,0-10.4,0-10.4-4.3s3.9-8.8,10.4-8.8c6.3,0,8.5,4.5,8.5,8.8
		S416.1,36.2,409.8,36.2z"/>
	<g>
		<path fill="#ED2224" d="M299,60.2c-0.4,0.5-0.9,1-1.3,1.5c-0.3,0.3-0.7,0.8-1.1,1.2c0.2,0.3,0.4,0.6,0.5,0.9
			c0.8,1.3,1.7,2.8,2.4,4.6v0c2.7,7.6,0.4,12.9-2,15.9c-2.6,3.2-6.1,5.1-9.2,6.7c-1.8,0.9-3.8,2-4.6,2.9c-1.5,1.8-3.2,4.8-1.6,10.6
			c1.1,4.2,3.9,9,7.6,13.3c0.9,1,2.3,2.2,3.9,3.5c3.3,2.8,7.1,5.9,9.2,10.3l0.1,0.1c0.8,1.7,2.5,3.5,4.4,5.5
			c1.1,1.2,2.3,2.4,3.4,3.8l0,0c0.9,1.1,1.5,2.2,1.9,3c0,0.1,0.1,0.2,0.1,0.2c0.1,0.1,0.2,0.2,0.3,0.3c0.6,0.6,1.6,1.4,2.5,2.6
			l0.5,0.7l0.4,0.8c0.5,1,1.5,2.4,2.6,3.8c3,3.9,7.6,9.8,5.6,18.1l0,0.1c-0.4,1.5-1,3-1.6,4.3c16.6-16.5,26.1-38.8,26.1-62.8
			c0-20.3-6.9-39.5-20-55.6C320.4,56.9,309.2,58,299,60.2z"/>
		<path fill="#ED2224" d="M289.9,73.5c0-3.2-4.6-7.8-9.6-10c-1.7-0.7-3.5-1.2-5.1-1.2c-6.4,0-12.8,6.8-12.8,11.1
			c0,4.2,6,7.1,12.3,7.2c0.2,0,0.4,0,0.6,0C281.6,80.7,289.9,77.8,289.9,73.5z"/>
		<path fill="#ED2224" d="M409.8,23.1c-6.5,0-10.4,4.5-10.4,8.8s3.9,4.3,10.4,4.3c6.3,0,8.5,0,8.5-4.3S416.1,23.1,409.8,23.1z"/>
	</g>
	<g>
		<path fill="#FBAD18" d="M281.9,173.9c-0.7-0.3-1.6-0.8-2.5-1.7l-0.1-0.1c-1-0.9-1.6-1.8-2.1-2.6c-7.4-2.7-12.4-7.9-16.9-12.6
			c-3.3-3.4-6.4-6.7-9.8-8.2l-0.1,0c-0.7-0.3-1.6-0.5-2.5-0.5c-1.3,0-2,0.4-2.1,0.6l-0.1,0.1c-0.2,0.3-0.5,1.2-0.8,1.9
			c-0.7,1.9-1.7,4.4-3.6,6.8c-2.6,3.3-5.9,5.8-8.9,8c-0.3,0.2-0.6,0.5-0.9,0.7c-5.3,4-7.7,6.3-9.4,12l-0.9,3.1l-2.8,1.6
			c-1.3,0.7-2.3,2.1-3.7,3.8c-0.4,0.5-0.8,1.1-1.3,1.6c14.1,8.7,29.9,13.3,46.3,13.3c5,0,10.1-0.5,15.8-1.7
			c0.3-6.7,0.9-13.9,3.9-20.8l0.4-1l0.7-0.9c0.6-0.8,1-1.4,1.4-2.3c0-0.1,0.1-0.1,0.1-0.2c0-0.1-0.1-0.2-0.1-0.3
			C282,174.2,281.9,174,281.9,173.9z"/>
		<path fill="#FBAD18" d="M227.6,97.6c2,0.1,4-0.3,5.9-0.7c6.4-1.4,30.4-7.5,28.2-14.7c-10.8,2.5-24.5-3.4-34-0.8
			c0.9-3.5,4.5-6.2,5.1-10.1c0.9-4.9-1.2-6-3.6-10.2c2.9-4.5,8.8-10.8,3.6-15.6c-2.6,2.5-8.6,8.2-10.5,11.4
			c-2.2,3.5,0.5,6.3-0.4,9.7c-0.4,1.4-1.5,2.3-2.4,3.3c-0.8,0.9-1.6,2-1.6,3.8v1.2c-2.2,2.5,0.9,17.5,3.4,20.1
			C222.9,96.9,225.2,97.5,227.6,97.6z"/>
		<path fill="#FBAD18" d="M348.9,33.7c-4.4,0.5-8,3-12.2,3.6c-0.5,0.1-1,0.1-1.5,0.1c-3.3,0.2-6.8-0.4-10.1-0.1
			c-8.5,0.8-14.1,1.5-22.7,0c-4.3-0.9-20.4-5.8-19.9,2.2c3.8-0.4,14-1.6,17.2,2c0.5,0.6,0.8,1.3,0.9,2.1c0.1,0.4,0.1,0.8,0,1.3
			c1.1,0,1.6,0.3,2.5,0.7l0.6,0.6c4.2,3.9,12.3-1.6,16.8-2.4c5.8-1,12.2-0.2,17.4-0.6c0.3,0,0.6-0.1,1-0.1
			c6.7-0.7,10.9-3.7,17.2-5.2c5.5-1.2,12.5,0.3,17.2-3.2C367.5,32.4,355.4,32.9,348.9,33.7z"/>
	</g>
	<g>
		<path fill="#90B9E3" d="M309,162.7c-0.5-2.1-2.9-4.1-4.6-5.3c-1.3-1-1-1.2-2.3-0.1c-0.6,0.5-0.8,1.4-1.3,1.9
			c-1.6,1.5-3.9,2.1-5,4.1c-0.3,0.6-0.5,1.1-0.6,1.7c-0.6,2.8,1.5,3.9,2.1,7.3c0.5,2.8,0.6,5.9,0.6,9c0,2.4,0,4.9,0.1,7.3
			c0,1,1.1,1.6,2,1.2c2.1-1,3.2-3.6,4-6.5c0.1-0.6,0.3-1.2,0.4-1.8c0.7-3.6,1.1-7.5,2.1-9.7c0.8-1.8,2.1-3.9,2.6-6.2
			C309.2,164.5,309.2,163.6,309,162.7z"/>
	</g>
	<g>
		<path fill="#90B9E3" d="M170.3,112c0,16.2,4.5,31.9,13.1,45.9c0.6-0.5,1.2-1,1.9-1.4c0.8-7.1,4.9-14.7,8.3-21.1
			c0.9-1.7,1.8-3.4,2.4-4.6l0-0.1c0.8-1.7,1.8-3.2,2.7-4.7c1.3-2.1,2.5-4.2,2.8-5.7c0-0.3-0.1-0.8-0.2-1.2c-0.4-2.1-1.1-5.2-0.3-8.9
			v-0.1c0.5-2.2,1.5-3.9,2.4-5.2c0.2-0.3,0.3-0.6,0.4-0.7l0.1-0.1c0.1-0.2,0.3-0.6,0.4-1c0.5-1.1,1.1-2.4,2.1-3.6
			c0.5-0.6,1.1-1.2,1.7-1.7c-1-2.6-1.5-5.2-1.9-7.4l0-0.1c-0.2-0.8-0.3-1.7-0.5-2.5c-1.5-7.1-3-14.4-1.5-22.8l0-0.2
			c0.3-1.3,0.6-2.3,0.9-3.1c0.4-1.1,0.4-1.2,0.3-1.8l-0.1-0.8l0.1-0.8c0.8-11.6,5.4-20.2,13.7-25.6C189.6,47.5,170.3,77.6,170.3,112
			z"/>
		<path fill="#E6C73D" d="M276,29.6c-0.3-2.1,2.6-6.5,0.6-8c-0.4-0.3-1-0.4-1.6-0.4c-2.2,0.1-5,2.2-6.6,2.4
			c0.4,4.8-10.9,4.8-8.9,10.6c0.9,2.6,9.8,8.1,11.9,6.9c0.7-1.2,1.8-2.2,2.8-3.2c0.4-0.5,0.9-1,1.3-1.6c1.3-1.9,1.5-0.6,1.9-3.1
			C277.3,33.4,276,30,276,29.6z"/>
		<path fill="#E6C73D" d="M202.2,171.8c-4.1-2.5-8.1,2.5-9.7,5.8l0,0c-0.4,0.9-1,1.6-1.8,2.2l-2,1.5c-1.3,1-2.9,2.4-4.5,4.2
			c-4.6,4.8-9.7,11.9-11.1,16.7c-0.3,1,0.4,1.9,1.5,1.9c5-0.3,8.8-7.6,11.8-10.8c0.8-0.8,1.7-1.5,2.5-2.2c0.4-0.3,0.9-0.6,1.3-0.9
			c0.8-0.5,1.5-1,2.3-1.4c2.4-1.4,4.9-2.7,7.1-4.7c1.7-1.5,4.5-6,4.2-9.4C203.8,173.5,203.3,172.5,202.2,171.8z"/>
	</g>
	<g>
		<path d="M70.4,285.8c-2.6,22.2-5.3,44.8-7.9,67.6c-7.4,0.4-14.8,0.8-22.2,1.3c-2-10.7-3.8-23.1-5.4-37.1c-0.7,6-2.4,18.5-5,37.7
			c-7.3,0.5-14.7,1-22,1.5c-2.7-24.8-5.3-50-8-75.7c5.7,0.4,11.5,0.8,17.2,1.3c0.6,8.6,1.3,17.2,1.9,25.8c0.6,8.3,1.2,16.5,1.8,24.7
			c0.6-12.8,2.3-29.5,4.9-49.9c6.2,0.4,12.3,0.8,18.5,1.2c0.3,2.1,0.9,9.8,1.9,23.2c0.6,8.9,1.3,17.7,2,26.5c1-16.9,2.7-33.3,5-49.2
			C58.9,285.2,64.7,285.5,70.4,285.8z"/>
		<path d="M114.8,287.9c0,21,0,42,0,63c-5.9,0.2-11.8,0.5-17.8,0.8c0-9,0-18.1,0-27.1c-1.8,0-3.6,0-5.3,0c0,9.1,0,18.2,0,27.3
			c-5.9,0.3-11.8,0.6-17.8,0.9c0-22.3,0-44.5,0-66.8c5.9,0.3,11.8,0.6,17.8,0.9c0,7.8,0,15.5,0,23.2c1.8,0,3.6,0.1,5.3,0.1
			c0-7.7,0-15.4,0-23.1C102.9,287.4,108.9,287.6,114.8,287.9z"/>
		<path d="M139.7,288.8c0,20.4,0,40.8,0,61.2c-5.9,0.2-11.8,0.4-17.8,0.6c0-20.8,0-41.6,0-62.5C127.8,288.4,133.8,288.6,139.7,288.8
			z"/>
		<path d="M182.7,289.8c0,3.9,0,7.9,0,11.8c-3.5,0-7.1-0.1-10.6-0.1c0,15.9,0,31.7,0,47.6c-5.9,0.1-11.9,0.3-17.8,0.4
			c0-16.1,0-32.2,0-48.3c-3.5-0.1-7-0.1-10.5-0.2c0-4.1,0-8.1,0-12.2C156.8,289.3,169.7,289.6,182.7,289.8z"/>
		<path d="M186.7,289.9c9.9,0.2,19.8,0.3,29.7,0.4c0,3.9,0,7.8,0,11.6c-3.9,0-7.9-0.1-11.9-0.1c0,3.7,0,7.4,0,11.1
			c3.7,0,7.4,0,11.1,0c0,3.7,0,7.4,0,11.1c-3.7,0-7.4,0-11.1,0c0,4.3,0,8.6,0,12.9c4.3,0,8.7-0.1,13-0.1c0,3.9,0,7.8,0,11.6
			c-10.3,0.1-20.6,0.2-30.9,0.4C186.7,329.2,186.7,309.6,186.7,289.9z"/>
		<path d="M279.5,315.6c-5.9,0-11.9,0-17.8,0c0-3.4,0-6.7,0-10.1c0-2.9-0.2-4.8-0.6-5.5c-0.4-0.7-1.2-1.1-2.5-1.1
			c-1.5,0-2.4,0.4-2.8,1.3s-0.6,2.8-0.6,5.7c0,9,0,18,0,26.9c0,2.8,0.2,4.6,0.6,5.5s1.3,1.3,2.7,1.3c1.3,0,2.2-0.4,2.6-1.3
			c0.4-0.9,0.6-2.9,0.6-6.1c0-2.4,0-4.9,0-7.3c5.9,0,11.9,0,17.8,0c0,0.8,0,1.5,0,2.3c0,6-0.5,10.3-1.5,12.9c-1,2.5-3.2,4.7-6.6,6.6
			c-3.4,1.9-7.6,2.8-12.7,2.7c-5.2,0-9.5-0.8-12.9-2.4c-3.4-1.6-5.6-3.8-6.7-6.6s-1.7-7.1-1.7-12.8c0-5.7,0-11.3,0-16.9
			c0-4.2,0.2-7.3,0.5-9.4c0.3-2.1,1.3-4.1,3-6c1.7-1.9,4-3.4,7-4.6c3-1.1,6.4-1.7,10.2-1.7c5.2,0,9.6,0.8,13,2.5
			c3.4,1.7,5.7,3.8,6.7,6.4c1.1,2.6,1.6,6.6,1.6,12C279.5,311.9,279.5,313.8,279.5,315.6z"/>
		<path d="M326.5,324.5c0,6-0.2,10.3-0.5,12.8c-0.3,2.5-1.3,4.8-3.1,6.8c-1.7,2-4,3.6-6.9,4.6s-6.3,1.5-10.1,1.4
			c-3.7-0.1-6.9-0.6-9.9-1.7c-2.9-1.1-5.3-2.7-7-4.7c-1.8-2.1-2.8-4.3-3.2-6.7s-0.5-6.6-0.5-12.7c0-3.3,0-6.7,0-10
			c0-5.9,0.2-10.1,0.5-12.5c0.3-2.4,1.3-4.7,3.1-6.7c1.7-2,4-3.6,6.9-4.8c2.9-1.1,6.3-1.7,10.1-1.8c3.7-0.1,6.9,0.4,9.9,1.3
			c2.9,1,5.3,2.5,7,4.6c1.8,2.1,2.8,4.3,3.2,6.8c0.3,2.5,0.5,6.8,0.5,13C326.5,317.6,326.5,321.1,326.5,324.5z M308.7,305
			c0-2.8-0.2-4.5-0.5-5.3s-1.1-1.1-2.2-1.1c-0.9,0-1.7,0.3-2.1,1c-0.5,0.6-0.7,2.5-0.7,5.5c0,9.2,0,18.4,0,27.6
			c0,3.4,0.2,5.5,0.5,6.4c0.3,0.8,1.1,1.2,2.3,1.2c1.2,0,2-0.4,2.3-1.4c0.3-0.9,0.5-3.1,0.5-6.6C308.7,323.1,308.7,314,308.7,305z"
			/>
		<path d="M351,288.6c0,16.4,0,32.9,0,49.3c3.6,0.1,7.2,0.1,10.8,0.2c0,4.2,0,8.3,0,12.5c-9.5-0.4-19.1-0.7-28.6-0.9
			c0-20.2,0-40.3,0-60.5C339.1,288.9,345,288.8,351,288.6z"/>
		<path d="M383.9,287.3c0,17.1,0,34.2,0,51.4c3.6,0.1,7.2,0.2,10.8,0.3c0,4.3,0,8.7,0,13c-9.5-0.4-19.1-0.9-28.6-1.2
			c0-20.9,0-41.8,0-62.7C372,287.8,377.9,287.5,383.9,287.3z"/>
		<path d="M431.8,284.8c3.4,22.8,6.8,46.1,10.2,69.7c-6-0.4-12.1-0.7-18.1-1.1c-0.3-4.1-0.6-8.2-1-12.3c-2.1-0.1-4.2-0.1-6.4-0.2
			c-0.4,4-0.7,8-1.1,12.1c-6.1-0.3-12.2-0.6-18.4-0.9c3-21.6,6-43.6,9.1-65.9C414.7,285.8,423.3,285.3,431.8,284.8z M422.4,329.1
			c-0.9-7.7-1.8-17.2-2.7-28.5c-1.8,13-2.9,22.5-3.4,28.4C418.3,329,420.4,329.1,422.4,329.1z"/>
		<path d="M445,284c4.2-0.3,8.4-0.5,12.6-0.8c8.4-0.6,14.1-0.6,17-0.1c3,0.5,5.4,2.2,7.3,5c1.9,2.8,2.8,7.5,2.8,14
			c0,5.9-0.7,9.9-2,12s-3.9,3.3-7.8,3.7c3.5,1,5.9,2.2,7.1,3.9s2,3.1,2.3,4.5c0.3,1.4,0.4,5.1,0.4,11.3c0,6.7,0,13.4,0,20.1
			c-5.5-0.4-11-0.8-16.5-1.2c0-8.2,0-16.4,0-24.5c0-3.9-0.3-6.4-0.9-7.4c-0.6-1-2.1-1.4-4.5-1.5c0,11,0,22,0,33
			c-5.9-0.4-11.8-0.8-17.8-1.2C445,331.2,445,307.6,445,284z M462.8,295.3c0,5.4,0,10.8,0,16.2c2,0,3.4-0.3,4.2-1
			c0.8-0.6,1.2-2.5,1.2-5.8c0-1.3,0-2.7,0-4.1c0-2.4-0.4-3.9-1.1-4.6C466.2,295.5,464.8,295.2,462.8,295.3z"/>
	</g>
	<g>
		<path d="M45.6,396.2v-5.7h-2.9v-4.9h2.9v-5.4h-2.2v-3.9H62c0.3,0,0.8,0.1,1.3,0.2c0.5,0.1,1,0.3,1.5,0.6s0.9,0.6,1.2,0.9
			c0.3,0.4,0.5,0.8,0.5,1.2v6.8c0,0.3-0.3,0.7-1,1.3c-0.1,0.1-0.3,0.2-0.4,0.3c-0.2,0.1-0.3,0.2-0.5,0.3c0.1,0.1,0.3,0.2,0.4,0.3
			s0.3,0.2,0.4,0.3c0.3,0.3,0.5,0.5,0.7,0.7c0.2,0.2,0.3,0.4,0.4,0.5v7.3c0,0.5-0.2,0.9-0.5,1.3s-0.8,0.7-1.2,0.9
			c-0.5,0.3-1,0.4-1.5,0.6c-0.5,0.1-0.9,0.2-1.3,0.2H43.4v-3.9L45.6,396.2L45.6,396.2z M52.6,395.7h6.6v-5h-6.6V395.7z M53,385.5
			h6.3v-4.7H53V385.5z"/>
		<path d="M73.6,379.7c0-0.5,0.1-0.9,0.4-1.3c0.3-0.4,0.6-0.8,1-1c0.4-0.3,0.8-0.5,1.3-0.7s0.9-0.3,1.3-0.3h13.5
			c0.6,0,1.1,0.1,1.7,0.3c0.5,0.2,1,0.5,1.4,0.9s0.7,0.8,1,1.3c0.3,0.5,0.4,1,0.4,1.6v16.4c0,0.3-0.1,0.6-0.3,1
			c-0.2,0.4-0.5,0.7-0.8,1.1c-0.3,0.3-0.6,0.6-1,0.9c-0.3,0.3-0.6,0.4-0.9,0.4H77.3c-0.1,0-0.2-0.1-0.4-0.1
			c-0.2-0.1-0.4-0.2-0.7-0.3s-0.5-0.3-0.7-0.4c-0.3-0.1-0.4-0.3-0.6-0.3c-0.3-0.2-0.6-0.5-0.9-1c-0.3-0.4-0.4-0.8-0.4-1.2
			L73.6,379.7L73.6,379.7z M80.6,395.7h8v-14.9h-8V395.7z"/>
		<path d="M109.6,388.8c0.5-0.2,0.7-0.4,0.8-0.7c0-0.1-0.3-0.2-0.8-0.5c-0.5-0.3-1.1-0.8-1.9-1.3c-0.8-0.7-1.4-1.5-2-2.5
			c-0.6-1-0.8-2.2-0.9-3.7h-2.2v-3.9h11.4v3.9h-2.2c0,0,0,0.1,0,0.1v0c-0.1,0.1-0.1,0.3-0.1,0.5c-0.1,0.2-0.1,0.4-0.1,0.8v0.3
			c0,0.1,0,0.1,0,0.1l0.1,0.6l0,0.1l0-0.1c0,0,0,0,0,0c0.1,0.1,0.1,0.2,0.1,0.4c0.1,0.1,0.2,0.4,0.3,0.7l0,0
			c0.2,0.4,0.6,0.7,1.2,0.9c0.3,0.1,0.6,0.2,0.8,0.3c0.3,0.1,0.5,0.1,0.8,0.1c0.4-0.1,1-0.3,1.7-0.6c0.6-0.3,1.2-1,1.7-2
			c-0.1,0-0.1-0.1-0.1-0.1v-0.5c0-0.3,0-0.6,0-0.8c0-0.2-0.1-0.4-0.1-0.5h-2.1v-3.9H128v3.9h-2.2c-0.1,0.9-0.2,1.7-0.4,2.5
			c-0.2,0.8-0.6,1.5-1.1,2c-0.6,0.5-1.1,1-1.7,1.4s-1.1,0.8-1.6,1.1c-0.3,0.2-0.5,0.4-0.8,0.5c-0.2,0.1-0.4,0.3-0.6,0.4
			c0.1,0.1,0.2,0.2,0.3,0.3c0.1,0.1,0.3,0.1,0.4,0.3c0.2,0.1,0.4,0.2,0.6,0.4c0.2,0.1,0.4,0.3,0.6,0.5h0l0.8,0.6l0,0
			c0.4,0.2,0.7,0.5,1,0.7s0.6,0.5,0.9,0.8c0.3,0.3,0.5,0.6,0.7,0.9c0.2,0.3,0.3,0.7,0.4,1.1c0.1,0.4,0.2,0.8,0.3,1.2
			c0.1,0.4,0.1,0.8,0.1,1.2v0.1h2.3v3.9h-11.8v-3.9h2.1c0-0.1,0.1-0.3,0.1-0.4c0-0.2,0-0.4,0-0.8v-0.9c-0.2-0.4-0.4-0.8-0.7-1.1
			c-0.3-0.3-0.5-0.5-0.8-0.7c-0.3-0.1-0.6-0.3-0.9-0.4c-0.3-0.1-0.5-0.2-0.8-0.3h0.1c-0.3,0-0.6,0.1-0.9,0.1
			c-0.3,0.1-0.6,0.1-0.9,0.3c-0.6,0.2-1,0.5-1.2,0.8c-0.2,0.4-0.3,0.7-0.3,1v0.4c0,0.3,0,0.6,0,1c0,0.4,0,0.7,0.1,0.9h2.1v3.9h-11.4
			v-3.9h2.2c0-1,0.2-1.9,0.4-2.5c0.3-0.7,0.6-1.3,1-1.9C107.1,390.6,108.2,389.6,109.6,388.8z"/>
		<path d="M135.1,396.2h2.1v-16h-2.1v-3.9h11.3v3.9h-2.4v16h2.4v3.9h-11.3V396.2z"/>
		<path d="M153.5,396.2h2.4v-19.9h1.8l12.7,10.4v-6.5h-2.2v-3.9h11.5v4.2h-2.4v19.5h-1.4l-13-10.9v7.3h2.2v3.5h-11.4L153.5,396.2
			L153.5,396.2z"/>
		<path d="M201,384v-3.2h-7.7v14.9h7.7l0-5.2h-3.6v-4.7h10.1v11.1c0,0.4-0.2,0.8-0.5,1.2s-0.7,0.8-1.2,1.1c-0.5,0.3-1,0.6-1.4,0.7
			c-0.5,0.2-0.9,0.3-1.2,0.3h-12.7c-0.3,0-0.7-0.1-1.1-0.3c-0.4-0.2-0.8-0.5-1.2-0.8c-0.4-0.3-0.7-0.7-1-1.1
			c-0.3-0.4-0.4-0.8-0.4-1.1v-17.9c0-0.2,0.1-0.5,0.3-0.8c0.2-0.3,0.4-0.6,0.7-0.8c0.3-0.3,0.5-0.5,0.8-0.7c0.3-0.2,0.6-0.3,0.8-0.3
			h14.9c0.9,0,1.6,0.3,2.1,0.9c0.5,0.6,0.9,1.3,1.1,2.1c0.1,0.3,0.2,0.6,0.2,1c0,0.3,0.1,0.7,0.1,1c0,0.2,0,0.3,0,0.5
			c0,0.1,0,0.3,0,0.5c0,0.2,0,0.4,0,0.7s0,0.6,0,1L201,384L201,384z"/>
		<path d="M236.8,396.2h2.2v-15.4h-2.3v3.3h-5.7v-7.8h23.8v7.8H249v-3.3h-2.7v15.4h2.2v3.9h-11.7V396.2z"/>
		<path d="M264.8,396.2v-5.7h-2.9v-4.9h2.9v-5.4h-2.2v-3.9h18.7c0.3,0,0.8,0.1,1.3,0.2c0.5,0.1,1,0.3,1.5,0.6
			c0.5,0.3,0.9,0.6,1.2,0.9c0.3,0.4,0.5,0.8,0.5,1.2v6.3c-0.2,0.4-0.5,0.7-0.8,0.9c-0.3,0.3-0.6,0.5-1,0.8l0,0
			c-0.2,0.1-0.3,0.2-0.3,0.3c-0.1,0.1-0.2,0.1-0.3,0.2s-0.1,0.1-0.2,0.1c0.1,0.1,0.4,0.4,0.9,0.8c0.4,0.4,1.1,1,1.9,1.8v5.7h2.1v4
			c-1.2,0-2.3,0-3.2-0.1c-0.9-0.1-1.7-0.1-2.3-0.3c-0.6-0.1-1.1-0.3-1.6-0.6c-0.4-0.3-0.8-0.6-1-1v0c-0.5-0.7-0.8-1.6-0.9-2.7
			c-0.1-1.1-0.2-2.5-0.3-4.3v-0.6h-6.9v5.6h2.5v3.9h-11.8v-3.9L264.8,396.2L264.8,396.2z M272.2,385.5h6.3v-4.7h-6.3V385.5z"/>
		<path d="M295.9,395.9h2.2v-5.6h-2.9v-5.2h3.1v-5.8c0-0.3,0.1-0.6,0.3-0.9c0.2-0.3,0.5-0.7,0.8-1s0.7-0.6,1-0.8
			c0.4-0.2,0.7-0.3,1-0.3h14.7c0.3,0,0.6,0.1,1,0.3c0.4,0.2,0.8,0.4,1.1,0.6s0.6,0.6,0.9,1c0.3,0.3,0.4,0.7,0.4,1.1v16.6h2.4v4.3
			h-11.8v-4.3h2.2v-5.6h-6.9v5.6h2.2v4.3h-11.8L295.9,395.9L295.9,395.9z M305.5,385.1h6.9v-3.8l-0.5-0.5H306l-0.5,0.5L305.5,385.1
			L305.5,385.1z"/>
		<path d="M329,396.2h2.1v-16H329v-3.9h11.3v3.9h-2.4v16h2.4v3.9H329V396.2z"/>
		<path d="M347.4,396.2h2.4v-19.9h1.8l12.7,10.4v-6.5h-2.2v-3.9h11.5v4.2h-2.4v19.5h-1.4l-13-10.9v7.3h2.2v3.5h-11.4L347.4,396.2
			L347.4,396.2z"/>
		<path d="M380.5,396.2h2.1v-16h-2.1v-3.9h11.3v3.9h-2.4v16h2.4v3.9h-11.3V396.2z"/>
		<path d="M399,396.2h2.4v-19.9h1.8l12.7,10.4v-6.5h-2.2v-3.9h11.5v4.2h-2.4v19.5h-1.4l-13-10.9v7.3h2.2v3.5H399L399,396.2
			L399,396.2z"/>
		<path d="M446.5,384v-3.2h-7.7v14.9h7.7l0-5.2h-3.6v-4.7h10.1v11.1c0,0.4-0.2,0.8-0.5,1.2c-0.3,0.4-0.7,0.8-1.2,1.1
			c-0.5,0.3-1,0.6-1.4,0.7c-0.5,0.2-0.9,0.3-1.2,0.3h-12.7c-0.3,0-0.7-0.1-1.1-0.3c-0.4-0.2-0.8-0.5-1.2-0.8c-0.4-0.3-0.7-0.7-1-1.1
			c-0.3-0.4-0.4-0.8-0.4-1.1v-17.9c0-0.2,0.1-0.5,0.3-0.8c0.2-0.3,0.4-0.6,0.7-0.8c0.3-0.3,0.5-0.5,0.8-0.7c0.3-0.2,0.6-0.3,0.8-0.3
			h14.9c0.9,0,1.6,0.3,2.1,0.9c0.5,0.6,0.9,1.3,1.1,2.1c0.1,0.3,0.2,0.6,0.2,1s0.1,0.7,0.1,1c0,0.2,0,0.3,0,0.5c0,0.1,0,0.3,0,0.5
			c0,0.2,0,0.4,0,0.7s0,0.6,0,1L446.5,384L446.5,384z"/>
	</g>
</g>
</svg>
